<svg xmlns="http://www.w3.org/2000/svg" id="Слой_1" data-name="Слой 1" viewBox="0 0 2748.68 1017">
  <defs>
    <linearGradient id="Безымянный_градиент_10" x1="98.81" x2="1015" y1="100.81" y2="1017" gradientUnits="userSpaceOnUse">
      <stop offset="0" stop-color="#f6a8ff"/>
      <stop offset="1" stop-color="#b2ede0"/>
    </linearGradient>
  </defs>
  <path id="Прямоугольник_2_копия" fill="#8c8c8c" d="M0 0h916.19v916.19H0z" data-name="Прямоугольник 2 копия"/>
  <path id="Прямоугольник_1_копия" fill="url(#Безымянный_градиент_10)" d="M98.81 100.81H1015V1017H98.81z" data-name="Прямоугольник 1 копия"/>
  <g id="Группа_2_копия_4" data-name="Группа 2 копия 4">
    <path id="PHOTO" d="M1242.15 322.71q59 0 90.95-29.3t32-78.62q0-50.29-31-79.6t-91.93-29.3h-125.36v344.76h68.76V322.71zm-7.32-55.18h-49.26v-106h49.26q32.19 0 46.33 13.67t14.15 39.56q0 52.74-60.48 52.74zM1626 105.89v139.66h-147.31V105.89h-68.77v344.76h68.77V300.73H1626v149.92h69.26V105.89zm293.09-4.89q-48.28 0-87.55 22.46t-61.94 62.75q-22.68 40.29-22.68 91.07t22.68 91.32q22.68 40.54 61.94 63t87.55 22.46q48.29 0 87.54-22.46t61.94-63q22.68-40.53 22.68-91.32t-22.68-91.07q-22.68-40.29-61.94-62.75T1919.09 101zm0 63.48q30.23 0 53.16 13.67t35.84 39.31q12.91 25.66 12.91 59.83t-12.93 59.82q-12.93 25.65-35.84 39.31t-53.16 13.68q-30.25 0-53.16-13.68t-35.85-39.31q-12.91-25.64-12.93-59.82t12.93-59.82q12.93-25.64 35.85-39.31t53.16-13.67zm199.47-58.6v54.69h94.61v290.08h68.77V160.58H2377v-54.69zm458-4.88q-48.29 0-87.55 22.46T2427 186.22q-22.68 40.29-22.68 91.07t22.68 91.32q22.68 40.54 61.94 63t87.55 22.47q48.27 0 87.54-22.47t61.94-63q22.68-40.53 22.68-91.32T2726 186.22q-22.68-40.29-61.94-62.75T2576.52 101zm0 63.48q30.22 0 53.16 13.67t35.84 39.31q12.92 25.64 12.93 59.82t-12.93 59.82q-12.93 25.63-35.84 39.31t-53.16 13.68q-30.26 0-53.16-13.68t-35.85-39.31q-12.93-25.64-12.93-59.82t12.93-59.82q12.91-25.64 35.85-39.31t53.16-13.67z" class="cls-3"/>
    <path id="GR" d="M1262.2 566.89q-50.73 0-89.26 22.46a155 155 0 0 0-59.74 62.26q-21.2 39.81-21.2 91.07t21.22 91.08a152.86 152.86 0 0 0 60 62Q1212 918 1262.68 918q44.38 0 78.77-17.33t55.6-46.15a162.5 162.5 0 0 0 28.53-63V725.1h-174.11v49.32H1368q-7.82 39.08-34.38 61t-63.65 22q-50.24 0-79.25-30.28t-29-84.48q0-34.17 12.68-59.58T1210 644q22.92-13.66 52.67-13.68 30.24 0 52.43 13.92a82.05 82.05 0 0 1 32.43 37.36h72.19q-11.71-52.74-53.16-83.75t-104.37-31zm470.63 348.17L1647 777.35q41-8.79 62.67-35.15t21.71-65.44q0-47.85-31.46-77.16t-91.45-29.3h-131.2v344.76H1546V780.77h30.24l80.47 134.29zM1546 628.41h56.57q30.24 0 44.63 13.92t14.39 38.82q0 52.26-59 52.25H1546z" class="cls-3"/>
    <path id="III_копия" d="M2728.48 582.64H1778.3v68.86h950.18zm0 131.36H1778.3v68.86h950.18V714zm0 131.36H1778.3v68.85h950.18v-68.85z" class="cls-3" data-name="III копия"/>
  </g>
</svg>
